<svg version="1.1" id="Layer_1" xmlns="http://www.w3.org/2000/svg" xmlns:xlink="http://www.w3.org/1999/xlink" x="0px" y="0px"
	 width="100%" viewBox="0 0 480 480" enable-background="new 0 0 480 480" xml:space="preserve">
<path fill="#000000" opacity="1.000000" stroke="none" 
	d="
M39.557526,266.439575 
	C35.346886,262.139587 31.438498,258.036316 27.391796,254.074326 
	C25.315014,252.041016 24.332251,249.921280 25.056137,246.944305 
	C42.939648,173.398010 82.705284,116.197105 150.478638,80.379211 
	C175.962921,66.910904 203.401718,59.888443 232.368454,58.586308 
	C285.082977,56.216633 331.381165,72.819496 372.207397,105.406258 
	C416.832489,141.025238 444.092834,187.700577 458.428040,242.523911 
	C460.155884,249.131836 458.359741,252.909943 453.719543,257.537109 
	C403.937805,307.178986 354.444855,357.110321 304.850220,406.939911 
	C285.455994,426.426025 265.922058,445.774139 246.655762,465.385559 
	C243.171188,468.932556 241.202225,469.157288 237.556351,465.458710 
	C203.287384,430.694550 168.839157,396.106842 134.395752,361.514923 
	C102.894829,329.878143 71.335876,298.299194 39.557526,266.439575 
M215.882675,194.229599 
	C237.357117,189.362854 258.650116,190.259262 279.434113,197.353287 
	C315.616882,209.703217 341.415497,234.162689 359.353577,267.436859 
	C363.597504,275.309082 366.861725,283.630066 369.837646,292.028870 
	C371.808258,291.549683 372.694580,290.276337 373.724030,289.240417 
	C396.154572,266.669312 418.535736,244.048920 441.032593,221.544159 
	C443.531586,219.044266 443.917755,216.864441 442.665710,213.588303 
	C428.996490,177.821335 408.655212,146.564880 380.288330,120.687042 
	C340.253052,84.164627 293.780121,64.298943 238.942093,64.908669 
	C197.532578,65.369095 160.448334,78.322784 126.919945,101.912239 
	C86.739388,130.181931 58.985275,168.102371 41.521011,213.830856 
	C40.152973,217.412903 40.868805,219.528351 43.457493,222.105270 
	C62.110687,240.673630 80.610619,259.395874 99.171921,278.056610 
	C103.926460,282.836639 108.726791,287.571075 113.914337,292.732666 
	C114.876656,290.351227 115.538658,288.853973 116.093361,287.317963 
	C120.701378,274.557983 126.780243,262.560730 134.568390,251.436691 
	C154.599762,222.825241 180.716019,202.818268 215.882675,194.229599 
M152.642761,331.928375 
	C175.498398,355.027466 198.383606,378.097443 221.166046,401.268494 
	C223.566528,403.709930 225.987518,404.895538 229.467514,404.799713 
	C237.960754,404.565735 246.465805,404.583923 254.962036,404.732727 
	C257.852417,404.783386 259.940063,403.976562 261.997986,401.890564 
	C281.890656,381.726807 301.844452,361.622803 321.873566,341.594543 
	C326.439880,337.028381 331.364166,332.820221 335.891174,328.660858 
	C333.483154,324.171356 330.566620,322.124207 328.178314,319.624207 
	C323.257874,314.473663 323.184998,314.176300 327.943359,309.202118 
	C330.935547,306.074219 334.075256,303.087280 337.060730,299.953217 
	C339.127350,297.783752 340.814606,297.986633 342.955017,300.021240 
	C346.296539,303.197540 349.164856,306.938751 354.360168,310.121216 
	C356.773590,307.272797 359.022125,304.125763 361.776703,301.511993 
	C364.332397,299.086945 364.646118,296.877838 363.553619,293.568909 
	C354.147736,265.080780 338.015198,241.275650 314.219299,222.947556 
	C287.104187,202.062973 256.441406,193.782684 222.596649,199.398270 
	C194.599319,204.043625 171.571991,218.285980 152.440750,238.866623 
	C137.711655,254.711609 127.267448,273.193176 120.658524,293.800751 
	C120.087776,295.580414 118.690933,297.589752 120.487770,299.430298 
	C123.808464,302.831696 126.842049,306.563568 132.012100,310.077423 
	C133.206863,308.368713 134.149750,306.509521 135.548416,305.103821 
	C143.772400,296.838379 143.808228,296.873993 151.969620,305.127289 
	C160.690887,313.946777 160.805359,314.061340 152.159073,322.702484 
	C148.923416,325.936249 148.094803,328.523529 152.642761,331.928375 
M256.070709,446.546692 
	C269.839355,432.760254 283.611206,418.977051 297.376099,405.186859 
	C348.111359,354.358368 398.844971,303.528290 449.574310,252.693893 
	C450.971527,251.293823 452.950348,249.995209 452.593964,247.775391 
	C451.395050,240.306732 449.532379,233.010208 446.138336,225.506149 
	C437.414459,234.270279 429.193176,242.515060 420.987488,250.775314 
	C368.493927,303.617920 316.008545,356.468689 263.493713,409.290161 
	C261.545959,411.249298 259.702057,413.188568 260.259125,416.177063 
	C261.799225,424.439087 258.088135,430.183136 251.747925,434.892426 
	C249.219604,436.770416 246.933640,439.013214 244.728394,441.276093 
	C242.781464,443.273956 241.104065,443.198242 239.194656,441.339844 
	C235.732727,437.970367 232.378418,434.463470 228.681107,431.370209 
	C225.038101,428.322449 223.228256,424.784790 223.923676,420.041748 
	C224.689407,414.819275 222.597366,411.042084 218.838699,407.325775 
	C197.747269,386.471863 176.884872,365.385864 155.984756,344.338959 
	C117.592178,305.676819 79.230568,266.983917 40.833878,228.325851 
	C39.958080,227.444092 39.272312,226.084610 37.090359,226.378983 
	C35.473251,232.267899 33.981068,238.397720 32.068298,244.393387 
	C31.006157,247.722733 31.755793,249.980835 34.190002,252.373383 
	C43.339863,261.366638 52.305031,270.547546 61.363106,279.634521 
	C117.829094,336.280731 174.286041,392.935913 230.807251,449.526978 
	C234.497513,453.221802 237.716980,457.500763 241.803131,460.142639 
	C246.645386,455.530334 251.101288,451.285980 256.070709,446.546692 
M253.696014,421.883636 
	C253.699051,419.561615 253.655807,417.238312 253.717865,414.917877 
	C253.782425,412.504150 252.859543,411.155334 250.266357,411.182159 
	C244.627777,411.240540 238.988525,411.229584 233.349609,411.261230 
	C231.644424,411.270813 230.693405,411.986633 230.315292,413.821991 
	C228.838745,420.989075 234.457611,431.699921 241.127579,434.087158 
	C241.684494,434.286499 242.659424,434.389343 242.957642,434.076691 
	C246.548904,430.312347 251.631561,427.939423 253.696014,421.883636 
M137.549652,316.096680 
	C138.556915,317.201935 139.532013,318.338837 140.579803,319.404236 
	C141.823837,320.669220 143.108780,322.716309 145.099609,321.094971 
	C147.603256,319.056000 150.723114,317.255219 151.275513,313.690277 
	C151.522964,312.093292 144.808319,306.433044 143.443726,306.670410 
	C141.361115,307.032654 137.023102,313.138947 137.549652,316.096680 
M346.547150,316.170105 
	C348.234924,310.212250 342.421997,309.566711 339.517792,304.907928 
	C337.132660,307.896057 335.399384,310.083221 333.646851,312.254822 
	C333.018097,313.033936 332.472382,313.740479 332.832123,314.894043 
	C334.560883,320.438324 340.448090,322.021606 344.645294,318.030243 
	C345.122864,317.576080 345.602264,317.123871 346.547150,316.170105 
z"/>
<path fill="#000000" opacity="1.000000" stroke="none" 
	d="
M325.613312,178.840729 
	C324.961609,176.672073 323.486420,176.008408 321.985748,175.190765 
	C318.837250,173.475327 318.632568,170.552719 321.782684,168.850388 
	C325.134705,167.038895 325.853638,164.368225 325.880951,161.003983 
	C325.909210,157.520905 325.638306,154.024460 326.455902,150.563538 
	C327.699585,145.298874 331.364349,142.259811 336.731720,142.181870 
	C338.367279,142.158127 339.797699,142.445404 340.085510,144.351440 
	C340.351959,146.115921 340.168976,147.876068 337.947144,148.144470 
	C332.718170,148.776077 332.879150,152.576828 332.997559,156.338623 
	C333.166504,161.706848 333.468506,167.086639 328.663025,171.417786 
	C333.423645,176.181870 333.234222,182.162445 333.001984,188.149948 
	C332.856049,191.911835 333.299622,195.201263 338.041656,195.842636 
	C340.272888,196.144409 340.325592,197.999512 340.082428,199.718246 
	C339.763947,201.969498 338.110107,202.001556 336.311401,201.848694 
	C329.964600,201.309280 326.459961,197.881210 325.951965,191.221939 
	C325.648895,187.248810 325.765289,183.243683 325.613312,178.840729 
z"/>
<path fill="#000000" opacity="1.000000" stroke="none" 
	d="
M371.364655,179.783966 
	C371.288605,183.863663 371.441833,187.534424 371.193848,191.177872 
	C370.735901,197.906021 366.596588,201.794098 360.334717,201.809906 
	C358.612976,201.814240 357.386658,201.342133 357.023132,199.545349 
	C356.689270,197.895187 357.072479,196.350937 358.857300,195.992874 
	C364.678070,194.825165 364.870026,190.468796 364.548004,185.992035 
	C364.181396,180.895370 364.331940,176.014099 368.135803,171.907745 
	C364.275848,167.541016 363.801941,162.605240 364.427032,157.269897 
	C364.916748,153.089767 364.469574,149.138214 359.069977,148.195251 
	C356.943726,147.823929 356.681610,146.099121 356.951202,144.322525 
	C357.248352,142.364441 358.783417,142.218750 360.355743,142.222427 
	C366.138397,142.235901 370.552307,146.107544 371.114929,151.963531 
	C371.400177,154.932388 371.321564,157.948944 371.227295,160.938263 
	C371.112885,164.566742 371.796753,167.574356 375.850891,168.698212 
	C377.579712,169.177475 378.042450,170.555466 377.987579,172.201523 
	C377.929779,173.934662 377.067322,174.946472 375.382812,175.368118 
	C373.279022,175.894745 371.850098,177.150787 371.364655,179.783966 
z"/>
<path fill="#000000" opacity="1.000000" stroke="none" 
	d="
M221.249527,391.721985 
	C202.734039,372.998169 184.500961,354.486755 166.155731,336.087158 
	C163.681427,333.605530 162.780960,331.944672 165.326248,328.635681 
	C171.395279,320.745605 171.280746,312.759766 165.191147,304.745544 
	C162.896912,301.726227 162.887909,299.805481 165.544968,297.148865 
	C184.746201,277.950714 203.859665,258.664642 222.952591,239.358612 
	C225.007507,237.280777 226.506989,237.256149 228.834152,239.195526 
	C237.900314,246.750931 246.100693,246.725586 255.290634,239.093796 
	C257.698273,237.094360 259.173248,237.426865 261.156128,239.428177 
	C280.267975,258.717682 299.413086,277.974335 318.594757,297.194397 
	C321.098145,299.702789 321.519592,301.728882 319.154053,304.868042 
	C312.924927,313.134186 313.059631,320.784912 319.310974,329.085083 
	C321.083893,331.439056 321.073181,332.948395 319.015076,335.017670 
	C299.282501,354.857544 279.604767,374.752106 259.956268,394.675293 
	C258.137268,396.519775 256.532501,396.791962 254.258484,395.434845 
	C246.292328,390.680542 238.081589,390.442352 230.118393,395.233185 
	C225.451141,398.041138 224.028778,393.915741 221.249527,391.721985 
M281.514740,364.014374 
	C291.030487,354.461090 300.507477,344.868652 310.091705,335.384552 
	C312.246643,333.252106 312.942932,331.550598 311.328552,328.503967 
	C307.336121,320.969513 307.390289,313.018799 311.310944,305.501465 
	C313.076111,302.116974 312.949066,300.161224 310.163483,297.457550 
	C301.089722,288.650543 292.385803,279.464020 283.416382,270.547485 
	C275.061462,262.241821 266.549042,254.094589 257.909637,245.686584 
	C248.033157,252.618484 237.810013,253.385086 227.489014,246.213699 
	C225.738388,244.997299 224.717209,246.276855 223.675873,247.329895 
	C206.706985,264.489258 189.755203,281.665558 172.776993,298.815704 
	C171.365570,300.241425 170.585541,301.431915 171.905670,303.530396 
	C177.170929,311.900085 176.934784,320.546967 172.476501,329.132507 
	C171.234177,331.524933 171.741211,333.037109 173.507401,334.803467 
	C190.692276,351.989960 207.834671,369.219025 224.943741,386.481018 
	C226.694107,388.247070 228.295944,388.703186 230.677429,387.629425 
	C238.053696,384.303497 245.596909,384.419373 252.955383,387.598297 
	C255.799881,388.827148 257.519836,388.081116 259.490295,386.070282 
	C266.596741,378.818085 273.832733,371.692841 281.514740,364.014374 
z"/>
<path fill="#000000" opacity="1.000000" stroke="none" 
	d="
M250.331772,231.329315 
	C241.960342,239.741730 241.960342,239.741730 233.721054,231.374619 
	C225.037186,222.556015 225.037170,222.556000 233.731293,213.686783 
	C241.985703,205.266144 241.985733,205.266144 250.033768,213.556274 
	C250.265900,213.795395 250.494965,214.037491 250.728195,214.275528 
	C258.884766,222.601318 258.884827,222.601273 250.331772,231.329315 
M241.131851,229.974884 
	C245.557999,229.639526 248.378403,225.959671 248.934998,222.924942 
	C249.645981,219.048477 244.687210,217.368286 242.277664,214.693008 
	C232.504105,221.911987 232.504105,221.911987 241.131851,229.974884 
z"/>
<path fill="#000000" opacity="1.000000" stroke="none" 
	d="
M360.741821,325.012878 
	C362.947479,327.047119 362.389160,328.582642 360.685120,330.280365 
	C344.901642,346.005310 329.156952,361.769135 313.416107,377.536774 
	C311.846863,379.108704 310.213165,380.235901 308.398804,378.079742 
	C306.423157,375.731903 308.264618,374.077881 309.787323,372.552216 
	C322.471802,359.842834 335.186676,347.163849 347.887115,334.470428 
	C350.709167,331.649933 353.487122,328.784912 356.332764,325.988647 
	C357.468079,324.873077 358.539917,323.216034 360.741821,325.012878 
z"/>
<path fill="#000000" opacity="1.000000" stroke="none" 
	d="
M257.337830,331.231903 
	C250.163132,338.268646 242.210052,340.095795 234.366714,336.749390 
	C227.108246,333.652527 222.183807,326.037476 222.359879,318.182190 
	C222.553238,309.556030 227.385605,302.561157 235.132858,299.693268 
	C242.752747,296.872528 251.232849,299.027893 256.985931,305.247650 
	C262.144501,310.824677 263.383972,319.839081 259.918427,327.129486 
	C259.281342,328.469757 258.356537,329.673187 257.337830,331.231903 
M228.335342,317.666321 
	C228.834656,326.958374 235.265961,332.852966 243.772934,331.815491 
	C251.494385,330.873840 257.048645,323.219543 255.505142,315.647491 
	C254.220779,309.346832 249.315247,305.196777 242.891754,304.976624 
	C234.866119,304.701538 230.548508,308.235107 228.335342,317.666321 
z"/>
</svg>